<?xml version="1.0" encoding="UTF-8"?>
<svg version="1.1" xmlns="http://www.w3.org/2000/svg" width="512" height="512">
<path d="M0 0 C1.23899048 -0.01283524 2.47798096 -0.02567047 3.7545166 -0.03889465 C5.10131423 -0.04706769 6.44811646 -0.05451034 7.79492188 -0.0612793 C8.48019455 -0.06535482 9.16546722 -0.06943035 9.87150574 -0.07362938 C13.50450329 -0.09444803 17.13746364 -0.10876328 20.77050781 -0.11816406 C24.48772343 -0.1291713 28.204331 -0.16351606 31.92133331 -0.20333576 C34.80933594 -0.22973297 37.6971993 -0.23787647 40.58531189 -0.24144554 C42.61071372 -0.248571 44.63601943 -0.27491366 46.66125488 -0.30183411 C63.64488229 -0.26253143 77.91345772 5.44376557 89.99804688 17.2902832 C100.50586984 28.25819446 106.00261321 41.30197438 105.82617188 56.48950195 C105.82166016 57.23006836 105.81714844 57.97063477 105.8125 58.73364258 C105.80079362 60.54813094 105.78286085 62.3625773 105.76367188 64.17700195 C107.01019531 64.1305957 108.25671875 64.08418945 109.54101562 64.03637695 C137.00080942 63.32525053 161.33104528 72.43473779 181.76367188 91.17700195 C199.85486925 108.84631956 212.43673871 133.33282131 212.9108429 158.98429871 C212.92581657 160.84561859 212.93542355 162.70698666 212.94067383 164.56835938 C212.94724503 165.59064133 212.95381622 166.61292328 212.96058655 167.66618347 C212.98023805 171.03828012 212.99196902 174.41033223 213.00195312 177.7824707 C213.00602865 178.94260492 213.01010418 180.10273914 213.01430321 181.29802895 C213.03513737 187.4483586 213.04944605 193.59866618 213.05883789 199.74902344 C213.06984812 206.05041208 213.10419343 212.35144234 213.14400959 218.65270519 C213.17037472 223.54059935 213.17854763 228.42841103 213.18211937 233.31637001 C213.18694044 235.63600373 213.19842341 237.95563491 213.21715736 240.27519798 C213.37408958 261.00783161 211.34088114 279.57501544 201.76367188 298.17700195 C201.22871094 299.23274414 200.69375 300.28848633 200.14257812 301.3762207 C187.88090427 323.87065836 166.45797328 340.9036524 142.01611328 348.39331055 C133.8065291 350.79407557 126.15178548 352.32628654 117.56376648 352.32417297 C116.75392408 352.32784966 115.94408167 352.33152635 115.10969859 352.33531445 C112.40409918 352.3463009 109.69853825 352.35018661 106.99291992 352.35400391 C105.0491982 352.36027261 103.10547766 352.36691977 101.16175842 352.37391663 C94.78297758 352.39491974 88.40419662 352.40531893 82.02539062 352.4152832 C79.82358094 352.41933285 77.62177137 352.42344984 75.41996193 352.42763329 C65.06853297 352.44668064 54.7171111 352.46090984 44.365668 352.46924525 C32.44897734 352.47900126 20.53247323 352.50527997 8.61584824 352.54574615 C-0.61418759 352.57600423 -9.84417026 352.59072349 -19.07425469 352.59402627 C-24.5772955 352.59636665 -30.08013693 352.60519388 -35.58312416 352.63048744 C-40.76983538 352.65394177 -45.95621842 352.65793228 -51.14296913 352.64772606 C-53.03382465 352.6472347 -54.92469729 352.65343518 -56.81550217 352.6672821 C-87.36354574 352.87825064 -112.84990176 342.05561746 -134.77148438 320.70825195 C-148.32869276 306.38365441 -156.33633217 288.27859503 -160.23632812 269.17700195 C-160.41266281 268.32970016 -160.5889975 267.48239838 -160.77067566 266.60942078 C-161.40102882 261.96295972 -161.40044061 257.38379919 -161.41333008 252.69970703 C-161.41990128 251.65645767 -161.42647247 250.61320831 -161.4332428 249.53834534 C-161.45292269 246.09107378 -161.46463171 242.64384586 -161.47460938 239.1965332 C-161.4786849 238.01216864 -161.48276043 236.82780407 -161.48695946 235.60754967 C-161.50780579 229.32870027 -161.52210915 223.04987258 -161.53149414 216.77099609 C-161.54250614 210.33160031 -161.57685001 203.89255506 -161.61666584 197.45328236 C-161.64300912 192.46420212 -161.65120199 187.47520283 -161.65477562 182.48605919 C-161.65960238 180.11535993 -161.67110236 177.74466331 -161.68981361 175.37403297 C-161.84269969 154.70588573 -159.69822292 136.7233359 -150.23632812 118.17700195 C-149.70136719 117.1199707 -149.16640625 116.06293945 -148.61523438 114.97387695 C-135.38888156 90.7414224 -112.91713582 74.56473951 -86.73632812 66.86450195 C-78.9501468 64.70874848 -71.90123892 64.03995214 -63.86132812 64.11450195 C-62.47107422 64.12126953 -62.47107422 64.12126953 -61.05273438 64.12817383 C-58.78053104 64.13988622 -56.50846425 64.15628823 -54.23632812 64.17700195 C-54.28273438 63.17282227 -54.32914062 62.16864258 -54.37695312 61.1340332 C-54.67771767 51.7607812 -53.76459667 43.99767332 -50.23632812 35.17700195 C-49.90890625 34.31719727 -49.58148438 33.45739258 -49.24414062 32.5715332 C-43.33024639 18.99547672 -30.9376335 8.66800116 -17.42382812 3.30200195 C-11.49577747 1.12140354 -6.32048893 0.05725929 0 0 Z M-16.06445312 42.2199707 C-21.06625561 49.07923867 -22.23632812 55.81896032 -22.23632812 64.17700195 C9.44367188 64.17700195 41.12367188 64.17700195 73.76367188 64.17700195 C72.8857569 53.64202226 72.19325818 45.89370607 64.38867188 38.73950195 C56.26675364 32.50271441 47.68683447 32.02112888 37.86914062 32.0090332 C36.9223494 32.0057048 35.97555817 32.0023764 35.00007629 31.99894714 C33.00225305 31.99389884 31.00442142 31.99153817 29.0065918 31.99169922 C25.97169894 31.98951671 22.93717222 31.97134949 19.90234375 31.95239258 C17.95377727 31.94945731 16.00520909 31.94747341 14.05664062 31.9465332 C13.15946823 31.93934769 12.26229584 31.93216217 11.3379364 31.92475891 C0.55529342 31.9632947 -8.61357194 33.89345177 -16.06445312 42.2199707 Z " fill="#424242" transform="translate(198.236328125,47.822998046875)"/>
<path d="M0 0 C4.07395497 2.72178576 5.94448579 5.48853618 7.76171875 10.09375 C8.20627248 14.07001832 8.17147752 18.02629228 8.14990234 22.02392578 C8.15778778 23.82047607 8.15778778 23.82047607 8.16583252 25.65332031 C8.1767583 28.93118631 8.17421368 32.20868758 8.16469526 35.48654795 C8.15705995 38.93918997 8.16415721 42.39180885 8.16885376 45.8444519 C8.17431035 51.65659908 8.16713302 57.46863193 8.15283203 63.28076172 C8.13661321 69.94820462 8.14171518 76.61537069 8.15831125 83.28280652 C8.17205868 89.04117788 8.17377882 94.79946724 8.16599524 100.55784976 C8.16137666 103.98123036 8.16052718 107.40448243 8.17060471 110.82785416 C8.27357173 161.87574599 -6.904522 204.52566734 -42.36328125 241.59375 C-74.86898409 273.22712466 -116.89863261 287.38987807 -161.54467773 287.40014648 C-163.66343981 287.40778175 -165.78219915 287.41621156 -167.9009552 287.42536926 C-173.61529545 287.44716825 -179.32958227 287.4560917 -185.04395938 287.46119571 C-188.61774809 287.46485232 -192.19152304 287.47109864 -195.76530647 287.4781971 C-208.24189997 287.50262692 -220.71845217 287.51573244 -233.19506836 287.51928711 C-244.81510512 287.52293206 -256.43487935 287.55291262 -268.05483574 287.59469169 C-278.04920907 287.62936379 -288.04349508 287.6448349 -298.03792816 287.64553314 C-303.99998423 287.64632607 -309.96177144 287.65507485 -315.92376518 287.68353081 C-321.5226378 287.70966305 -327.12101737 287.71194355 -332.71992302 287.69587517 C-334.77301609 287.69405769 -336.82613728 287.70077826 -338.87916946 287.71669388 C-341.68353554 287.73710902 -344.48616825 287.72663012 -347.29051208 287.70848083 C-348.10101735 287.7216808 -348.91152262 287.73488077 -349.74658865 287.74848074 C-355.48676129 287.6637199 -359.0625814 286.05767991 -363.23828125 282.09375 C-366.8060244 277.14494499 -367.07042002 271.99352035 -366.23828125 266.09375 C-364.43563701 260.72655501 -361.13569482 257.77058261 -356.23828125 255.09375 C-353.39444485 254.71637773 -350.94524903 254.55335131 -348.10998535 254.58822632 C-347.30775433 254.5821362 -346.50552331 254.57604608 -345.67898226 254.56977141 C-342.99858141 254.55419268 -340.31907693 254.56695175 -337.63867188 254.57958984 C-335.71291035 254.57412749 -333.78715318 254.56688517 -331.86140442 254.55799866 C-327.71497717 254.54265955 -323.56879738 254.539861 -319.42234802 254.54676437 C-312.84596142 254.55757173 -306.26983168 254.54013851 -299.69348145 254.51895142 C-289.2686262 254.48867226 -278.84384707 254.47699664 -268.41895151 254.47337496 C-249.81318267 254.46674623 -231.20746861 254.43737271 -212.6017642 254.3882786 C-206.08646657 254.37192725 -199.57127962 254.36633564 -193.05596352 254.36986899 C-188.96755058 254.37031159 -184.879178 254.36265928 -180.79077721 254.35319328 C-178.91977287 254.35055013 -177.04875993 254.35119295 -175.17775917 254.35570335 C-165.27260551 254.37789426 -155.46572522 254.08021618 -145.59484863 253.21450806 C-144.71219188 253.13859353 -143.82953513 253.06267901 -142.92013121 252.98446405 C-127.49859535 251.50031901 -113.02838381 247.07537902 -99.23828125 240.09375 C-98.57344727 239.75859375 -97.90861328 239.4234375 -97.22363281 239.078125 C-66.84727497 223.49006583 -43.22256233 196.5564875 -32.53076172 163.93505859 C-31.81989599 161.64141748 -31.14449943 159.34109888 -30.48828125 157.03125 C-30.28952393 156.33612305 -30.0907666 155.64099609 -29.88598633 154.92480469 C-26.99218397 144.17320639 -25.94134436 133.43583744 -25.96704102 122.33032227 C-25.96181427 121.12861893 -25.95658752 119.92691559 -25.95120239 118.688797 C-25.93840798 115.43717114 -25.93391966 112.18565674 -25.93235898 108.93401074 C-25.9278422 105.51219566 -25.90981969 102.09045647 -25.89256287 98.66868591 C-25.84369982 88.5223951 -25.81245132 78.37606082 -25.79125977 68.22967529 C-25.77471834 60.3162541 -25.75190236 52.40297741 -25.70823902 44.48965305 C-25.69007833 41.09141232 -25.67783981 37.69336981 -25.67953682 34.29507637 C-25.67934506 30.51367171 -25.66110311 26.73274632 -25.63891602 22.95141602 C-25.64349319 21.83391968 -25.64807037 20.71642334 -25.65278625 19.56506348 C-25.58496995 12.30521502 -24.68890395 7.85070054 -19.73828125 2.28125 C-14.66400199 -2.15874435 -6.18970521 -2.50612846 0 0 Z " fill="#BCBCBC" transform="translate(467.23828125,176.90625)"/>
<path d="M0 0 C1.23899048 -0.01283524 2.47798096 -0.02567047 3.7545166 -0.03889465 C5.10131423 -0.04706769 6.44811646 -0.05451034 7.79492188 -0.0612793 C8.48019455 -0.06535482 9.16546722 -0.06943035 9.87150574 -0.07362938 C13.50450329 -0.09444803 17.13746364 -0.10876328 20.77050781 -0.11816406 C24.48772343 -0.1291713 28.204331 -0.16351606 31.92133331 -0.20333576 C34.80933594 -0.22973297 37.6971993 -0.23787647 40.58531189 -0.24144554 C42.61071372 -0.248571 44.63601943 -0.27491366 46.66125488 -0.30183411 C63.64488229 -0.26253143 77.91345772 5.44376557 89.99804688 17.2902832 C103.25959301 31.13249026 105.76367188 45.19444766 105.76367188 64.17700195 C95.20367187 64.17700195 84.64367187 64.17700195 73.76367188 64.17700195 C72.77367187 59.22700195 71.78367187 54.27700195 70.76367188 49.17700195 C67.33713617 42.64267804 63.7282473 37.97858399 56.76367188 35.17700195 C50.33524716 33.35593276 44.23191952 32.88102471 37.57617188 32.91137695 C36.63362549 32.9094635 35.6910791 32.90755005 34.7199707 32.90557861 C32.74006888 32.90422611 30.7601579 32.90785673 28.78027344 32.91625977 C25.7719303 32.92697254 22.76418422 32.9163324 19.75585938 32.90356445 C17.82096224 32.90488621 15.88606547 32.90744895 13.95117188 32.91137695 C13.06341064 32.90732849 12.17564941 32.90328003 11.26098633 32.89910889 C1.38950172 32.97222234 -6.62847471 34.59043625 -14.23632812 41.17700195 C-20.42826695 47.6615946 -20.44971785 55.24395059 -22.23632812 64.17700195 C-32.79632813 64.17700195 -43.35632813 64.17700195 -54.23632812 64.17700195 C-54.23632812 45.17700195 -54.23632812 45.17700195 -50.23632812 35.17700195 C-49.90890625 34.31719727 -49.58148438 33.45739258 -49.24414062 32.5715332 C-43.33024639 18.99547672 -30.9376335 8.66800116 -17.42382812 3.30200195 C-11.49577747 1.12140354 -6.32048893 0.05725929 0 0 Z " fill="#BDBDBD" transform="translate(198.236328125,47.822998046875)"/>
</svg>
